<mxfile host="Electron" modified="2023-08-01T13:32:38.607Z" agent="Mozilla/5.0 (Macintosh; Intel Mac OS X 10_15_7) AppleWebKit/537.36 (KHTML, like Gecko) draw.io/21.6.5 Chrome/114.0.5735.243 Electron/25.3.1 Safari/537.36" etag="J53KrDbPkxDRDJ4fZzPF" version="21.6.5" type="device">
  <diagram id="Ta_ITRcVz4Bdm_ywW9Xz" name="Page-1">
    <mxGraphModel dx="1309" dy="1200" grid="1" gridSize="10" guides="1" tooltips="1" connect="1" arrows="1" fold="1" page="1" pageScale="1" pageWidth="1700" pageHeight="1100" math="0" shadow="0">
      <root>
        <mxCell id="0" />
        <mxCell id="1" parent="0" />
        <mxCell id="lWufevYBVzTER42Q3oKB-60" value="" style="group" parent="1" vertex="1" connectable="0">
          <mxGeometry x="540" y="120" width="460" height="470" as="geometry" />
        </mxCell>
        <mxCell id="lWufevYBVzTER42Q3oKB-35" value="" style="rounded=0;whiteSpace=wrap;html=1;fillColor=#fff2cc;strokeColor=#d6b656;" parent="lWufevYBVzTER42Q3oKB-60" vertex="1">
          <mxGeometry width="460" height="470" as="geometry" />
        </mxCell>
        <mxCell id="lWufevYBVzTER42Q3oKB-36" value="Notarization Phase" style="text;html=1;strokeColor=none;fillColor=none;align=center;verticalAlign=middle;whiteSpace=wrap;rounded=0;fontStyle=1;fontSize=21;" parent="lWufevYBVzTER42Q3oKB-60" vertex="1">
          <mxGeometry x="130" y="10" width="200" height="30" as="geometry" />
        </mxCell>
        <mxCell id="lWufevYBVzTER42Q3oKB-55" style="edgeStyle=orthogonalEdgeStyle;curved=1;rounded=0;orthogonalLoop=1;jettySize=auto;html=1;exitX=1;exitY=0.5;exitDx=0;exitDy=0;fontSize=12;startArrow=none;startFill=0;endArrow=classic;endFill=1;fillColor=#000000;" parent="lWufevYBVzTER42Q3oKB-60" source="lWufevYBVzTER42Q3oKB-38" edge="1">
          <mxGeometry relative="1" as="geometry">
            <mxPoint x="160" y="234.75862068965512" as="targetPoint" />
          </mxGeometry>
        </mxCell>
        <mxCell id="lWufevYBVzTER42Q3oKB-38" value="&lt;b&gt;Notary&lt;/b&gt;" style="ellipse;whiteSpace=wrap;html=1;aspect=fixed;shadow=1;" parent="lWufevYBVzTER42Q3oKB-60" vertex="1">
          <mxGeometry x="40" y="195" width="80" height="80" as="geometry" />
        </mxCell>
        <mxCell id="lWufevYBVzTER42Q3oKB-47" value="&lt;b&gt;User&lt;/b&gt;" style="ellipse;whiteSpace=wrap;html=1;aspect=fixed;shadow=1;" parent="lWufevYBVzTER42Q3oKB-60" vertex="1">
          <mxGeometry x="340" y="195" width="80" height="80" as="geometry" />
        </mxCell>
        <mxCell id="lWufevYBVzTER42Q3oKB-53" value="" style="group" parent="lWufevYBVzTER42Q3oKB-60" vertex="1" connectable="0">
          <mxGeometry x="160" y="90" width="150" height="290" as="geometry" />
        </mxCell>
        <mxCell id="lWufevYBVzTER42Q3oKB-49" value="" style="rounded=0;whiteSpace=wrap;html=1;fontSize=21;" parent="lWufevYBVzTER42Q3oKB-53" vertex="1">
          <mxGeometry width="140" height="290" as="geometry" />
        </mxCell>
        <mxCell id="lWufevYBVzTER42Q3oKB-50" value="Notarized Transcript" style="text;html=1;strokeColor=none;fillColor=none;align=center;verticalAlign=middle;whiteSpace=wrap;rounded=0;fontSize=12;fontStyle=1" parent="lWufevYBVzTER42Q3oKB-53" vertex="1">
          <mxGeometry x="5" width="130" height="30" as="geometry" />
        </mxCell>
        <mxCell id="lWufevYBVzTER42Q3oKB-41" value="" style="rounded=0;whiteSpace=wrap;html=1;align=left;" parent="lWufevYBVzTER42Q3oKB-53" vertex="1">
          <mxGeometry x="10" y="40" width="120" height="160" as="geometry" />
        </mxCell>
        <mxCell id="lWufevYBVzTER42Q3oKB-42" value="&lt;b&gt;Transcript&lt;/b&gt;" style="text;html=1;strokeColor=none;fillColor=none;align=center;verticalAlign=middle;whiteSpace=wrap;rounded=0;" parent="lWufevYBVzTER42Q3oKB-53" vertex="1">
          <mxGeometry x="20" y="40" width="100" height="30" as="geometry" />
        </mxCell>
        <mxCell id="lWufevYBVzTER42Q3oKB-43" value="" style="rounded=0;whiteSpace=wrap;html=1;" parent="lWufevYBVzTER42Q3oKB-53" vertex="1">
          <mxGeometry x="20" y="100" width="100" height="90" as="geometry" />
        </mxCell>
        <mxCell id="lWufevYBVzTER42Q3oKB-44" value="Encrypted Data" style="text;html=1;strokeColor=none;fillColor=none;align=center;verticalAlign=middle;whiteSpace=wrap;rounded=0;" parent="lWufevYBVzTER42Q3oKB-53" vertex="1">
          <mxGeometry x="25" y="70" width="90" height="30" as="geometry" />
        </mxCell>
        <mxCell id="lWufevYBVzTER42Q3oKB-45" value="1010101010101&lt;br&gt;0101010101010&lt;br&gt;1010101110101&lt;br&gt;0101010010101&lt;br&gt;0010101010101&lt;br&gt;0101011001011" style="text;html=1;strokeColor=none;fillColor=none;align=center;verticalAlign=middle;rounded=0;whiteSpace=wrap;" parent="lWufevYBVzTER42Q3oKB-53" vertex="1">
          <mxGeometry x="40" y="100" width="60" height="90" as="geometry" />
        </mxCell>
        <mxCell id="lWufevYBVzTER42Q3oKB-51" value="&lt;b&gt;Signature&lt;/b&gt;" style="rounded=0;whiteSpace=wrap;html=1;fontSize=12;" parent="lWufevYBVzTER42Q3oKB-53" vertex="1">
          <mxGeometry x="10" y="250" width="120" height="30" as="geometry" />
        </mxCell>
        <mxCell id="lWufevYBVzTER42Q3oKB-52" value="&lt;b&gt;Metadata&lt;/b&gt;" style="rounded=0;whiteSpace=wrap;html=1;fontSize=12;" parent="lWufevYBVzTER42Q3oKB-53" vertex="1">
          <mxGeometry x="10" y="210" width="120" height="30" as="geometry" />
        </mxCell>
        <mxCell id="lWufevYBVzTER42Q3oKB-48" value="" style="sketch=0;html=1;aspect=fixed;strokeColor=none;shadow=0;align=center;verticalAlign=top;fillColor=#2D9C5E;shape=mxgraph.gcp2.check;fontSize=21;" parent="lWufevYBVzTER42Q3oKB-53" vertex="1">
          <mxGeometry x="100" y="30" width="50" height="40" as="geometry" />
        </mxCell>
        <mxCell id="lWufevYBVzTER42Q3oKB-56" style="edgeStyle=orthogonalEdgeStyle;curved=1;rounded=0;orthogonalLoop=1;jettySize=auto;html=1;entryX=0;entryY=0.5;entryDx=0;entryDy=0;fontSize=12;startArrow=none;startFill=0;endArrow=classic;endFill=1;fillColor=#000000;" parent="lWufevYBVzTER42Q3oKB-60" source="lWufevYBVzTER42Q3oKB-49" target="lWufevYBVzTER42Q3oKB-47" edge="1">
          <mxGeometry relative="1" as="geometry" />
        </mxCell>
        <mxCell id="lWufevYBVzTER42Q3oKB-63" value="" style="shape=singleArrow;whiteSpace=wrap;html=1;fontSize=12;arrowWidth=0.45714285714285713;arrowSize=0.58;fillColor=#CCCCCC;" parent="1" vertex="1">
          <mxGeometry x="480" y="320" width="50" height="70" as="geometry" />
        </mxCell>
        <mxCell id="lWufevYBVzTER42Q3oKB-57" value="" style="rounded=0;whiteSpace=wrap;html=1;fillColor=#d5e8d4;strokeColor=#82b366;" parent="1" vertex="1">
          <mxGeometry x="1070" y="120" width="600" height="470" as="geometry" />
        </mxCell>
        <mxCell id="lWufevYBVzTER42Q3oKB-58" value="Selective Disclosure Phase" style="text;html=1;strokeColor=none;fillColor=none;align=center;verticalAlign=middle;whiteSpace=wrap;rounded=0;fontStyle=1;fontSize=21;" parent="1" vertex="1">
          <mxGeometry x="1229.9969565217389" y="130" width="327.8260869565217" height="30" as="geometry" />
        </mxCell>
        <mxCell id="lWufevYBVzTER42Q3oKB-4" value="&lt;b&gt;Verifier&lt;/b&gt;" style="ellipse;whiteSpace=wrap;html=1;aspect=fixed;shadow=1;" parent="1" vertex="1">
          <mxGeometry x="1569.9991304347825" y="310" width="80" height="80" as="geometry" />
        </mxCell>
        <mxCell id="lWufevYBVzTER42Q3oKB-111" style="edgeStyle=orthogonalEdgeStyle;rounded=0;orthogonalLoop=1;jettySize=auto;html=1;entryX=0;entryY=0.5;entryDx=0;entryDy=0;fontSize=12;fontColor=#000000;startArrow=none;startFill=0;endArrow=classic;endFill=1;fillColor=#000000;" parent="1" source="lWufevYBVzTER42Q3oKB-87" target="lWufevYBVzTER42Q3oKB-90" edge="1">
          <mxGeometry relative="1" as="geometry" />
        </mxCell>
        <mxCell id="lWufevYBVzTER42Q3oKB-87" value="&lt;b&gt;User&lt;/b&gt;" style="ellipse;whiteSpace=wrap;html=1;aspect=fixed;shadow=1;" parent="1" vertex="1">
          <mxGeometry x="1090.0017391304348" y="315" width="80" height="80" as="geometry" />
        </mxCell>
        <mxCell id="lWufevYBVzTER42Q3oKB-112" style="edgeStyle=orthogonalEdgeStyle;rounded=0;orthogonalLoop=1;jettySize=auto;html=1;entryX=0;entryY=0.5;entryDx=0;entryDy=0;fontSize=12;fontColor=#000000;startArrow=none;startFill=0;endArrow=classic;endFill=1;fillColor=#000000;" parent="1" source="lWufevYBVzTER42Q3oKB-100" target="lWufevYBVzTER42Q3oKB-4" edge="1">
          <mxGeometry relative="1" as="geometry" />
        </mxCell>
        <mxCell id="lWufevYBVzTER42Q3oKB-90" value="" style="rounded=0;whiteSpace=wrap;html=1;fontSize=21;" parent="1" vertex="1">
          <mxGeometry x="1200" y="210" width="140" height="290" as="geometry" />
        </mxCell>
        <mxCell id="lWufevYBVzTER42Q3oKB-91" value="Notarized Transcript" style="text;html=1;strokeColor=none;fillColor=none;align=center;verticalAlign=middle;whiteSpace=wrap;rounded=0;fontSize=12;fontStyle=1" parent="1" vertex="1">
          <mxGeometry x="1205" y="210" width="130" height="30" as="geometry" />
        </mxCell>
        <mxCell id="lWufevYBVzTER42Q3oKB-92" value="" style="rounded=0;whiteSpace=wrap;html=1;align=left;" parent="1" vertex="1">
          <mxGeometry x="1210" y="250" width="120" height="160" as="geometry" />
        </mxCell>
        <mxCell id="lWufevYBVzTER42Q3oKB-93" value="&lt;b&gt;Transcript&lt;/b&gt;" style="text;html=1;strokeColor=none;fillColor=none;align=center;verticalAlign=middle;whiteSpace=wrap;rounded=0;" parent="1" vertex="1">
          <mxGeometry x="1220" y="250" width="100" height="30" as="geometry" />
        </mxCell>
        <mxCell id="lWufevYBVzTER42Q3oKB-94" value="" style="rounded=0;whiteSpace=wrap;html=1;" parent="1" vertex="1">
          <mxGeometry x="1220" y="310" width="100" height="90" as="geometry" />
        </mxCell>
        <mxCell id="lWufevYBVzTER42Q3oKB-95" value="Encrypted Data" style="text;html=1;strokeColor=none;fillColor=none;align=center;verticalAlign=middle;whiteSpace=wrap;rounded=0;" parent="1" vertex="1">
          <mxGeometry x="1225" y="280" width="90" height="30" as="geometry" />
        </mxCell>
        <mxCell id="lWufevYBVzTER42Q3oKB-96" value="&lt;font color=&quot;#cccccc&quot;&gt;1010101010101&lt;br&gt;0101010101010&lt;br&gt;1010&lt;/font&gt;&lt;b&gt;1011101&lt;/b&gt;&lt;font color=&quot;#cccccc&quot;&gt;01&lt;br&gt;0101010010101&lt;br&gt;0010101010101&lt;br&gt;0101011001011&lt;/font&gt;" style="text;html=1;strokeColor=none;fillColor=none;align=center;verticalAlign=middle;rounded=0;whiteSpace=wrap;" parent="1" vertex="1">
          <mxGeometry x="1240" y="310" width="60" height="90" as="geometry" />
        </mxCell>
        <mxCell id="lWufevYBVzTER42Q3oKB-97" value="&lt;b&gt;Signature&lt;/b&gt;" style="rounded=0;whiteSpace=wrap;html=1;fontSize=12;" parent="1" vertex="1">
          <mxGeometry x="1210" y="460" width="120" height="30" as="geometry" />
        </mxCell>
        <mxCell id="lWufevYBVzTER42Q3oKB-106" style="edgeStyle=orthogonalEdgeStyle;rounded=0;orthogonalLoop=1;jettySize=auto;html=1;fontSize=12;fontColor=#000000;startArrow=none;startFill=0;endArrow=classic;endFill=1;fillColor=#000000;" parent="1" source="lWufevYBVzTER42Q3oKB-98" edge="1">
          <mxGeometry relative="1" as="geometry">
            <mxPoint x="1470" y="350" as="targetPoint" />
            <Array as="points">
              <mxPoint x="1370" y="435" />
              <mxPoint x="1370" y="350" />
            </Array>
          </mxGeometry>
        </mxCell>
        <mxCell id="lWufevYBVzTER42Q3oKB-98" value="&lt;b&gt;Metadata&lt;/b&gt;" style="rounded=0;whiteSpace=wrap;html=1;fontSize=12;" parent="1" vertex="1">
          <mxGeometry x="1210" y="420" width="120" height="30" as="geometry" />
        </mxCell>
        <mxCell id="lWufevYBVzTER42Q3oKB-100" value="&lt;b&gt;ZK Proof&lt;/b&gt;" style="rounded=0;whiteSpace=wrap;html=1;fontSize=12;fillColor=default;" parent="1" vertex="1">
          <mxGeometry x="1410" y="320" width="120" height="60" as="geometry" />
        </mxCell>
        <mxCell id="lWufevYBVzTER42Q3oKB-107" style="edgeStyle=orthogonalEdgeStyle;rounded=0;orthogonalLoop=1;jettySize=auto;html=1;exitX=1;exitY=0.5;exitDx=0;exitDy=0;entryX=0;entryY=0.5;entryDx=0;entryDy=0;fontSize=12;fontColor=#000000;startArrow=none;startFill=0;endArrow=classic;endFill=1;fillColor=#000000;" parent="1" source="lWufevYBVzTER42Q3oKB-97" target="lWufevYBVzTER42Q3oKB-100" edge="1">
          <mxGeometry relative="1" as="geometry">
            <Array as="points">
              <mxPoint x="1370" y="475" />
              <mxPoint x="1370" y="350" />
            </Array>
          </mxGeometry>
        </mxCell>
        <mxCell id="lWufevYBVzTER42Q3oKB-105" value="" style="endArrow=classic;html=1;rounded=0;fontSize=12;fontColor=#000000;fillColor=#000000;edgeStyle=orthogonalEdgeStyle;entryX=0;entryY=0.5;entryDx=0;entryDy=0;exitX=1;exitY=0.444;exitDx=0;exitDy=0;exitPerimeter=0;" parent="1" source="lWufevYBVzTER42Q3oKB-96" target="lWufevYBVzTER42Q3oKB-100" edge="1">
          <mxGeometry width="50" height="50" relative="1" as="geometry">
            <mxPoint x="920" y="370" as="sourcePoint" />
            <mxPoint x="970" y="320" as="targetPoint" />
          </mxGeometry>
        </mxCell>
        <mxCell id="7FoGzQ1kGSNo0XInAhHn-1" value="" style="shape=singleArrow;whiteSpace=wrap;html=1;fontSize=12;arrowWidth=0.45714285714285713;arrowSize=0.58;fillColor=#CCCCCC;" vertex="1" parent="1">
          <mxGeometry x="1010" y="320" width="50" height="70" as="geometry" />
        </mxCell>
        <mxCell id="7FoGzQ1kGSNo0XInAhHn-2" value="" style="group" vertex="1" connectable="0" parent="1">
          <mxGeometry x="30" y="120" width="440" height="470" as="geometry" />
        </mxCell>
        <mxCell id="lWufevYBVzTER42Q3oKB-31" value="" style="rounded=0;whiteSpace=wrap;html=1;fillColor=#dae8fc;strokeColor=#6c8ebf;" parent="7FoGzQ1kGSNo0XInAhHn-2" vertex="1">
          <mxGeometry width="440" height="470" as="geometry" />
        </mxCell>
        <mxCell id="lWufevYBVzTER42Q3oKB-33" value="Request Phase" style="text;html=1;strokeColor=none;fillColor=none;align=center;verticalAlign=middle;whiteSpace=wrap;rounded=0;fontStyle=1;fontSize=21;" parent="7FoGzQ1kGSNo0XInAhHn-2" vertex="1">
          <mxGeometry x="120" y="10" width="200" height="30" as="geometry" />
        </mxCell>
        <mxCell id="lWufevYBVzTER42Q3oKB-1" value="&lt;b&gt;Server&lt;/b&gt;" style="ellipse;whiteSpace=wrap;html=1;aspect=fixed;shadow=1;" parent="7FoGzQ1kGSNo0XInAhHn-2" vertex="1">
          <mxGeometry x="20" y="80" width="80" height="80" as="geometry" />
        </mxCell>
        <mxCell id="lWufevYBVzTER42Q3oKB-2" value="&lt;b&gt;User&lt;/b&gt;" style="ellipse;whiteSpace=wrap;html=1;aspect=fixed;shadow=1;" parent="7FoGzQ1kGSNo0XInAhHn-2" vertex="1">
          <mxGeometry x="180" y="80" width="80" height="80" as="geometry" />
        </mxCell>
        <mxCell id="lWufevYBVzTER42Q3oKB-23" style="edgeStyle=orthogonalEdgeStyle;curved=1;rounded=0;orthogonalLoop=1;jettySize=auto;html=1;exitX=1;exitY=0.5;exitDx=0;exitDy=0;entryX=0;entryY=0.5;entryDx=0;entryDy=0;startArrow=classic;startFill=1;endArrow=classic;endFill=1;" parent="7FoGzQ1kGSNo0XInAhHn-2" source="lWufevYBVzTER42Q3oKB-1" target="lWufevYBVzTER42Q3oKB-2" edge="1">
          <mxGeometry relative="1" as="geometry" />
        </mxCell>
        <mxCell id="lWufevYBVzTER42Q3oKB-29" style="edgeStyle=orthogonalEdgeStyle;curved=1;rounded=0;orthogonalLoop=1;jettySize=auto;html=1;entryX=1;entryY=0.5;entryDx=0;entryDy=0;startArrow=classic;startFill=1;endArrow=classic;endFill=1;" parent="7FoGzQ1kGSNo0XInAhHn-2" source="lWufevYBVzTER42Q3oKB-3" target="lWufevYBVzTER42Q3oKB-2" edge="1">
          <mxGeometry relative="1" as="geometry" />
        </mxCell>
        <mxCell id="lWufevYBVzTER42Q3oKB-3" value="&lt;b&gt;Notary&lt;/b&gt;" style="ellipse;whiteSpace=wrap;html=1;aspect=fixed;shadow=1;" parent="7FoGzQ1kGSNo0XInAhHn-2" vertex="1">
          <mxGeometry x="340" y="80" width="80" height="80" as="geometry" />
        </mxCell>
        <mxCell id="lWufevYBVzTER42Q3oKB-30" style="edgeStyle=orthogonalEdgeStyle;curved=1;rounded=0;orthogonalLoop=1;jettySize=auto;html=1;startArrow=classic;startFill=1;endArrow=none;endFill=0;exitX=0.5;exitY=0;exitDx=0;exitDy=0;" parent="7FoGzQ1kGSNo0XInAhHn-2" source="lWufevYBVzTER42Q3oKB-11" edge="1">
          <mxGeometry relative="1" as="geometry">
            <mxPoint x="300" y="120" as="targetPoint" />
          </mxGeometry>
        </mxCell>
        <mxCell id="lWufevYBVzTER42Q3oKB-24" style="edgeStyle=orthogonalEdgeStyle;curved=1;rounded=0;orthogonalLoop=1;jettySize=auto;html=1;startArrow=classic;startFill=1;endArrow=none;endFill=0;exitX=0.5;exitY=0;exitDx=0;exitDy=0;" parent="7FoGzQ1kGSNo0XInAhHn-2" source="lWufevYBVzTER42Q3oKB-11" edge="1">
          <mxGeometry relative="1" as="geometry">
            <mxPoint x="140" y="120" as="targetPoint" />
          </mxGeometry>
        </mxCell>
        <mxCell id="lWufevYBVzTER42Q3oKB-39" value="" style="group" parent="7FoGzQ1kGSNo0XInAhHn-2" vertex="1" connectable="0">
          <mxGeometry x="160" y="230" width="120" height="160" as="geometry" />
        </mxCell>
        <mxCell id="lWufevYBVzTER42Q3oKB-10" value="" style="rounded=0;whiteSpace=wrap;html=1;align=left;" parent="lWufevYBVzTER42Q3oKB-39" vertex="1">
          <mxGeometry width="120" height="160" as="geometry" />
        </mxCell>
        <mxCell id="lWufevYBVzTER42Q3oKB-11" value="Transcript" style="text;html=1;strokeColor=none;fillColor=none;align=center;verticalAlign=middle;whiteSpace=wrap;rounded=0;fontStyle=1" parent="lWufevYBVzTER42Q3oKB-39" vertex="1">
          <mxGeometry x="10" width="100" height="30" as="geometry" />
        </mxCell>
        <mxCell id="lWufevYBVzTER42Q3oKB-26" value="" style="rounded=0;whiteSpace=wrap;html=1;" parent="lWufevYBVzTER42Q3oKB-39" vertex="1">
          <mxGeometry x="10" y="60" width="100" height="90" as="geometry" />
        </mxCell>
        <mxCell id="lWufevYBVzTER42Q3oKB-27" value="Encrypted Data" style="text;html=1;strokeColor=none;fillColor=none;align=center;verticalAlign=middle;whiteSpace=wrap;rounded=0;" parent="lWufevYBVzTER42Q3oKB-39" vertex="1">
          <mxGeometry x="15" y="30" width="90" height="30" as="geometry" />
        </mxCell>
        <mxCell id="lWufevYBVzTER42Q3oKB-28" value="1010101010101&lt;br&gt;0101010101010&lt;br&gt;1010101110101&lt;br&gt;0101010010101&lt;br&gt;0010101010101&lt;br&gt;0101011001011" style="text;html=1;strokeColor=none;fillColor=none;align=center;verticalAlign=middle;rounded=0;whiteSpace=wrap;" parent="lWufevYBVzTER42Q3oKB-39" vertex="1">
          <mxGeometry x="30" y="60" width="60" height="90" as="geometry" />
        </mxCell>
        <mxCell id="lWufevYBVzTER42Q3oKB-32" style="edgeStyle=orthogonalEdgeStyle;curved=1;rounded=0;orthogonalLoop=1;jettySize=auto;html=1;entryX=0.5;entryY=0;entryDx=0;entryDy=0;startArrow=none;startFill=0;endArrow=none;endFill=0;" parent="7FoGzQ1kGSNo0XInAhHn-2" source="lWufevYBVzTER42Q3oKB-2" target="lWufevYBVzTER42Q3oKB-11" edge="1">
          <mxGeometry relative="1" as="geometry" />
        </mxCell>
      </root>
    </mxGraphModel>
  </diagram>
</mxfile>
